<svg xmlns="http://www.w3.org/2000/svg" fill="none" viewBox="0 0 1512 756">
  <ellipse cx="993" cy="137" fill="#d9d9d9" rx="12" ry="11"/>
  <rect width="1349" height="147" x="80" y="304" fill="#d9d9d9"/>
  <ellipse cx="754.5" cy="377.5" fill="#d9d9d9" rx="333.5" ry="337.5"/>
  <g filter="url(#a)">
    <line x1="756.3" x2="974.3" y1="375.3" y2="162.3" stroke="#000" stroke-width="2"/>
  </g>
  <path fill="#000" d="M695 45a337 337 0 0 0-266 238l-4 13-78 1c-235 2-269 3-270 5l-3 25c-1 27 0 120 2 127l1 5h347l6 16c23 65 43 98 85 140a333 333 0 0 0 425 44q96-61 136-175l9-25 72-1 173-2c98-1 101-1 103-3 1-2 2-15 2-75q0-71-2-77l-1-5h-173c-138 0-174 0-174-2l-10-25c-15-41-32-72-56-104-16-20-16-20-14-27q3-6 0-10c-1-3-1-3-11-2h-10l-19-14c-51-37-88-54-147-68-15-3-18-3-59-4h-42zm106 5a337 337 0 0 1 170 78q6 4 1 4-3 1-4-1-1-3-6 0-6 2-5 4c0 3-5 5-6 2-2-2-9 0-10 4q-3 5-12 6-9-1-5 11l1 9-5-3-14-11a268 268 0 0 0-342 34 254 254 0 0 0-77 156q-7 46 4 93c2 11 2 11 0 14q-6 7-5 13 3 7 12 12c3 0 5 3 15 23l18 32c26 37 61 68 97 87l10 5 1 8q1 15 12 17 10 2 17-7l4-4 8 2q22 6 54 9a270 270 0 0 0 232-439q-8-10-8-12l6 1q6 5 7 0 4-4 6 0c1 4 7 5 9 2q5-3-3-8-7-5-2-9 2-4 6 2 4 4 6 3 6-5-2-10-7-3-2-7 0-3 6 1 5 3 7 1c4-3 1-9-4-9q-6-1-1-6c2-3 0-5 16 15a331 331 0 0 1 64 130c0 2 36 2 176 2h175v147h-175l-176 1-4 15q-9 30-24 61a330 330 0 0 1-616-75c-1-2-11-2-176-2H81V304h176c139 0 175 0 176-2l4-16A335 335 0 0 1 730 47c9-1 58 1 71 3m-49 89v22h146l6 4 11 8 4 4-22 22-23 22-60 1h-61v60h27l28 1c0 1-18 19-39 37l-13 13h-9c-7-1-8-1-21 5l-13 6H497l1-3 1-9q2-15 8 0 2 11 6-1l2-7 6 1h6l-8-21q-10-27-3-22 7 3 13 0l5-2-6-3-9-2q-5 3 4-14c8-16 29-48 29-44l-7 19-8 19h6c6 0 6 0 8 5l4 7q0 4 3-4l3-8 6 1 6-1-14-41q-1-3 4 0 4 3 10 0l6-3-6-3q-6-3-10-1l-4 1q1-3 12-13c11-11 12-12 17-13h7q2 0 4 7l4 7 2-6q1-9 10-7c6 0 6 1 1-13l-3-9 3-2c9-8 37-21 59-28 15-5 17-5 18-1q3 7-4 3-4-2-10 1l-6 3 6 2q7 3 10 1l5-1-16 42q-2 3 5 2l7-1 3 7 3 7 3-6c2-7 2-7 8-7q8 0 6-3l-8-23-7-19 5 1q4 3 10 0l6-3-6-3q-6-3-10 0-7 4-3-6c1-4 2-4 17-6l31-3 4-1zm251-8q2 6-20 42c-15 24-15 24-21 21-5-2-15-3-18-1q-2 2-5-1-4-3-1-7l2-3-3 3q-6 5 0-4l4-5-5 4c-4 5-9 4-4 0q3-4-1-1l-3 2q-4 0 8-13 9-8 8-11l-2-3q-5-6-9-1-3 7 5 7l5-1-8 8q-12 14-8 6c1-3 1-4-1-19q-2-6 3-5 8 0 48-16 23-8 26-2m-38 3h-3l1-1zm-26 22-2 1-1-1 1-1zm62 12q1 4-2 1-3-1-3-2 0-2 3-2 2 0 2 3m-8 13q1 5-3 3l-2-3zm-70 5q-1 3 2 1 5-3 0 5l-4 5 4-4 4-4 5 4 4 4-6 6q-5 6-7 6l-7-5q-6-6-3-8 3-3-1 0l-3 1q-2-2 4-8 10-9 8-3m62 9v2q-3 4-6-2-3-4 1-2zm-75 4q0 3 2 1 2-1 1 3-1 2 1 2c2-1 9 4 9 7l-6 6c-5 5-5 5-8 3-8-8-9-9-7-11q2-4-1-1t-4 1q-1-1 5-7 9-9 8-4m42 10 9 11-20 1h-21l8-9q13-13 15-13t9 10m-54 3c3 4 3 4-2 9l-5 5 5-4 6-5 5 4 4 4-6 5-6 6-8-8-8-8 6-5 6-6zm-13 13q3 3 2 4l1 1 6 3 4 4-5 5q-4 5-6 5c-2 0-11-11-10-13q1-3-2-1h-2c-1-1 6-10 9-10zm-14 12 2 1q2-1 2 1l2 2 6 4 4 4-5 5-5 5-7-6q-5-6-5-8h-1l-3-1q-1-1 4-6 8-6 6-1m-9 10 2 5 1 1q2-1 6 3l4 4-4 5-5 4-6-6-9-8q-4-1 2-6l6-5zm-5 16 7 7-3 5-4 4-6-5-9-8-3-3 3-4 5-4zm-5 22q-4 6-9 0l-8-8-6-5 4-4 4-4 9 9 9 8zm-15-3 9 9-3 3-4 3-10-8-9-8 4-4 4-4zm-15 3 3 4 2 2q2 0 2 2-1 4 1 2 1-2 4 1 5 3-1 8l-3 3-5-6q-6-5-4-7 3-4 0-1t-4 0l-4-2q-3 0 2-7l3-3zm179 10c5 13 11 40 11 46v3H798l7-8 30-30 23-23h139zm-189-2 2 2q3 1 3 2-1 2 1 2l6 4 5 5-4 3-3 4-9-10c-9-9-9-9-7-12 2-2 7-3 6 0m-9 10q-4 4-5 2-3-1 1-4 2-4 5-2 2 1-1 4m5 2q0 2 1 1 2 0 6 5l6 5-3 3-3 3-8-7q-9-9-5-10 6-4 6 0m-11 2c1 1-3 6-5 6q-4-2-1-6 5-3 6 0m9 9c7 7 7 7 5 10-3 3-4 3-12-5q-8-8-4-9l3-3zm-9 5q10 10 7 12l-3 2c-3 0-15-13-14-15h-1q-5 0-2-6l3-2zm-7 7c8 8 9 9 7 11l-3 2c-2 0-11-9-10-11h-1l-5-3q-6-4-1-6l3-2zm-7 7c10 9 10 10 8 11-3 2-4 2-13-7q-10-11-8-12l2-2zm-14-1q0 3 1 2t9 7c8 7 8 7 5 9-2 2-3 2-11-6l-10-10q0-5 4-5zm-20 2 3 1-10 9-10 10 7 8q8 9 15 13l6 6 11-12 12-11-2 7q-3 8-1 12c1 6 1 7-20 54l-19 42-19 44-25 54-28 60q-10 20-23 8-5-5-5-10l3-72c3-62 3-66 1-72q-6-13-19-16l-65 1h-64c-8-3-12-15-6-20a6863 6863 0 0 1 228-107c22-10 23-11 30-9m22 11c9 8 9 9 7 11s-3 2-12-8q-11-10-8-11l2-2zm-14-3-1 3q-1 3-3 1-3-1-1-3 3-4 5-1m10 10c8 7 8 7 6 9q-1 4-10-5-8-8-6-9 0-6 10 5m-16-4 2 2c3 0 17 14 16 16l-2 1c-2 0-20-18-20-20s4-1 4 1m4 12q13 11 9 12 0 3-10-8l-10-9q-3-1-2-4c1-2 2-1 13 9m-12-3q-1 3-4-1 0-2 2-1zm16 16q3 6-8-5-8-7-8-9c1-1 15 10 16 14m-195 38-61 28-6-32v-4h41l41 1zm449-1-10 42-3 11H874c-69 0-125 0-124-1l25-57c1-1 27-2 120-2h118zM641 537l-1 30-1 20-18 1h-18l-8-6a281 281 0 0 1-51-54l49-1h49zm326-9a324 324 0 0 1-48 52l-11 8H801l-106-1 27-59 123-1z"/>
  <g filter="url(#b)">
    <line x1="752.3" x2="977.3" y1="372.3" y2="153.3" stroke="#000" stroke-width="2"/>
  </g>
  <path fill="#000" d="M733 56c-5 3-5 4-5 16 0 20 3 25 12 25q9 0 9-12v-6h-4q-5 0-4 5-1 10-4-1c-2-10-1-21 1-20l2 4q1 5 4 4 4 1 4-5 1-6-3-9-6-4-12-1M752 76v21h8V79l2 9c2 9 3 9 6 9h4q1-2-1-12c-3-10-3-11 0-20q3-10 0-10-6-2-8 6l-1 5-1-5q1-7-5-6h-4zM706 61l-4 3 2 13 3 18c3 7 15 6 18-1 3-5-1-31-5-34q-7-5-14 1m9 9c2 9 3 22 1 22q-2 0-2-3l-3-23q3-3 4 4M683 63l-5 1 4 21c4 18 4 20 7 19 5-1 5-1 4-10-3-10-3-10-1-10s2 1 4 11q1 10 5 7l4-1c1-1-2-15-4-18l-1-8-2-9q-1-6-6-5zm8 10q-1 6-3 0 0-4 2-3zM842 68l-7 20-5 19 3 1 4 1 4-9q2-8 4-8c2 0 2 1-2 12l-2 7 4 1h4c2-2 13-39 12-39l-4-1q-3-3-5 5-2 6-4 7-3 1-1-6 2-5 2-8c-1-2-6-4-7-2M861 94l-10 18 3 3q5 3 6-3l3-1q3 1 2 5-2 4 2 5h4l12-39-13-6zm9 5-3 6q-5 1 1-8l4-6zM797 85q0 3 4 4 9 1 8-2 0-3-4-4-8-1-8 2M881 104l-9 19 4 2 4 2 4-8 5-8c2 0 2 0-2 9-4 8-4 8-2 9l4 2c2 0 10-16 9-18l1-3c3-1 8-9 8-13q0-3-7-8l-8-4zm16-5q-1 4-4 4c-1-1 2-7 3-6zM604 92q-7 3-8 9c0 4 13 28 16 30q6 3 12-2c5-4 5-6 1-14q-2-7-6-4-3 1-2 4 6 19-7-2l-6-12q2-2 6 2 1 6 6 2 4-2 1-6-6-10-13-7M651 98c-4 1-6 6-2 6s10-3 9-5q0-4-7-1M903 114c-6 8-10 17-10 18q0 2 6 5c9 5 11 4 20-10s10-17 8-20-11-10-13-10zm16-4c0 2-13 22-14 22q-4 0 5-13 9-15 9-9M584 103v6q3 9-2 2-4-6-8-1c-2 2-2 2 4 9q7 7 11 18l5 10 4-2c2-2 2-2-1-8l-1-6 5 5 4 4 3-2 4-2-8-9q-10-9-12-17-4-13-8-7M563 117l-3 3 4 5q6 8 3 8l-6-5-5-6-3 3-3 3 11 14c16 20 14 19 18 16l4-2-6-7-5-9q0-4 8 5 6 11 9 5c3-2 2-3-9-18l-13-16q-1-1-4 1M541 169q-6 6 0 7l5-4q4-4 2-5-3-3-7 2M498 181c-2 3-2 3 2 8q8 8 0 2-7-6-9 0c-2 3-3 2 16 16 14 11 15 11 17 9q6-3-3-9l-5-4 7 2 7 3 2-3q7-3-8-8-9-4-16-12l-7-8zM483 202l-2 4 6 3q10 6-2 2c-5-2-5-2-8 1q-3 3-1 5l34 20 3-3q3-3-5-7l-5-4 7 2c6 2 6 2 8 0l2-4-18-12-17-10zM471 224c-2 4-2 4 14 13l13 7q4 6-16-5l-16-7-2 4c-1 2-1 3 13 10 17 9 22 10 26 6q7-9 1-14c-3-3-29-17-31-17zM459 249c-4 4-6 11-5 12l36 16q3-1 5-7l-8-3c-7-3-7-3-6-8q2-7-9-12-9-4-13 2m13 8 1 2c-1 1-9-2-9-3q2-4 8 1M1042 250l-3 3q4 8-2 8-4 2-5-2-2-5-7-2-3 2-1 4 4 5-2 7-4 2-5-2-3-5-8-2-2 0 2 8l3 8 20-8 19-8-3-8-3-7q0-2-5 1M1040 281c-13 4-15 5-16 3s-6-2-7 0c-1 1 4 17 5 17l4-1q3-1 3-4c-1-2 1-3 14-7l16-6c1-2-2-7-3-7zM1049 298c-25 7-26 7-26 10l2 4q0 2 7-1l8-1-7 3q-7 3-6 7l1 5 20-5c20-5 20-5 20-8q0-5-13-2-7 2 2-3l8-3c1-1-1-9-2-9zM466 300l-1 6q-1 2 2 2 4-1 5-9c0-5-5-4-6 1M91 377v54h17l21-2q15-4 14-33 0-19-7-23l-4-2 5-5q8-8 4-25c-2-16-6-18-32-18H91zm27-37q3 1 2 11l-1 11h-4l-4 1v-11l1-12q2-2 6 0m2 42 1 14c0 11 0 12-3 14-6 4-7 2-7-14l1-15q3-2 8 1M151 377v54h21v-25c0-26 0-26 6-24 2 1 2 4 2 25v24h21l1-21c1-23 0-29-5-33l-3-3 4-3q8-8 5-29c-3-17-6-19-33-19h-19zm30-32c2 4 1 15-1 16q-2 2-5 1-2 2-3-10v-9h4q4 0 5 2M211 377v54h45v-22h-23v-24h20v-21h-20v-21h22v-20h-44zM261 377v54h22V323h-22zM291 332v10l11 1h11l-12 33c-11 31-12 33-12 44v11h46v-20h-24l12-34c12-32 13-35 13-44v-10h-45zM343 377v54h22v-50h10v50h21V323h-21v38h-10v-38h-22zM1064 324l-1 5q1 4-5 4-5 1-5-3 1-4-4-3-4-1-4 4 1 6-4 5-4 0-4-3 1-6-4-4c-4 1-4 1-3 8l2 8c1 1 40-5 41-5l-1-9q-2-12-8-7M1113 377v54h20l1-37v-36l6 36 6 36h20l5-35 7-37 1 35v38h20V323h-34l-4 28-5 32-5-24-4-33-1-3h-33zM1209 377v54h46v-22h-23v-24h20v-21h-20v-21h21v-20h-44zM1260 333v10h12v88h23v-88h12v-20h-47zM1322 329l-9 97-1 5h21l1-9 1-9h6q9-1 7 4l1 9 1 5h9q12 0 10-3l-9-102c0-3 0-3-19-3h-18zm21 35 2 27q1 6-4 5h-5l1-8 3-44q0-12 3 20M1379 377v54h44l-1-9v-9l-11-1h-11v-89h-21zM469 337c0 5 1 5-17 2-19-2-19-2-19 2q0 4 3 5l38 4c1-1 3-15 2-16l-4-1q-3 0-3 4M1063 349c-13 1-13 1-13 6q1 5 4 5l4-1c2-2 9-2 9 0s-22 4-25 3q-3-2 2-3 3 0 3-4 1-6-5-4l-7 3c-3 3-3 11 0 14s4 3 18 2q22 0 22-7 1-3-1-6v-5q1-3-2-4zM447 353l-14 1-1 7c0 7 0 7 4 8l34 4q4 1 3-3 0-4-3-4-7-3 1-6 3-1 3-4c1-5 3-4-27-3m13 9q1 3-5 1h-8q-2-1 3-2 12-2 10 1M432 384v9h4q4 0 4-2c0-3 1-3 17-3h16v-9l-16 1c-17 0-17 0-17-3q0-3-4-2h-4zM1036 378q-3 1-3 10v8l21 1 21-1 1-4c-1-3-1-3-10-4q-17-2 1-3h9v-4c0-3 0-3-8-4h-16c-3-2-13-1-16 1m13 8q0 2-4 2-6 0-3-3 4-2 7 1M466 394v5q3 5-5 4-6 0-5-4 0-3-4-3-5-1-4 4t-4 4q-4 0-4-3 0-6-5-4-4-1-2 8l1 8 21-1 20-2v-8c0-9 0-9-4-9zM1033 403l-2 14c0 1 41 5 42 4l1-9 1-8h-4q-5-1-4 4t-5 4q-6 0-5-4t-3-5q-5-3-5 4-1 5-5 3-4 0-3-4 0-4-4-4-4-1-4 1M453 416l-19 4v4c2 8 1 8 13 8h11l-10 4-11 3 1 6 2 6 21-3c19-3 20-3 19-7l-1-3-11 1q-23 5-2-2l12-5v-4c-1-2-2-3-13-3q-19 0 3-4c8-1 8-1 8-5l-2-3q-3-1-21 3M1030 428l-1 7 9 4q19 6 1 4l-12-1-1 4-1 6c-1 3-1 3 22 8l18 4 1-4v-3l-11-4-12-2h13c12 0 12 0 13-4v-4l-10-4-9-4 10 2 10 1 1-3c0-3 0-4-16-7l-21-5q-3-1-4 5M1022 462q-6 15-3 13c14 6 38 13 38 12l4-8c2-6 2-6-1-8q-4-4-6 2-1 5-6 3-5-1-3-5 1-4-2-5-6-2-6 2-1 3-4 3-6 0-4-6v-4q-6-2-7 1M1000 512l-4 8 3 1q4 3 6 0 0-2 16 6l14 8 2-3 2-4-14-8q-16-8-13-10 0-2-3-5l-4-1zM989 530q-4 7-2 8l32 21c2 1 10-11 10-13l-3-3q-2-3-5 2c-3 3-3 3-9-1q-2-1 1-5 3-3-2-5-4-2-6 2-2 5-5 0-4-3-1-5v-5q-4-5-10 4M959 569l-5 6 15 14 16 15 6-6q5-5 5-8-3-5-9-1l-2 3-4-3q-5-4 0-6 3-3-1-6l-3-3-3 3-3 3-2-3q-4-2 0-5 3-2 1-5-3-6-11 2M942 587l-3 3 13 15 15 15 6-5q7-6 4-8l-1-3-4 3-4 2-6-7-12-12-5-6zM927 599l-6 4 22 35q1 1 4-1 4-2 2-6-4-6 4-3h5l2-3-14-16-13-14zm17 22q-1 3-7-7l-5-8 7 7q7 7 5 8M909 612q-7 3-8 9c0 3 14 26 17 28q7 4 13-2 5-5 2-12c-4-7-4-8-8-5q-6 3-2 5 4 7 1 8c-2 0-13-20-13-22q-1-4 3 1 4 4 7 2 6-1-2-9-5-6-10-3M884 626c-7 4-7 8 1 22q6 12 10 15c4 3 4 3 8 1 9-4 9-7 2-22-9-18-12-21-21-16m12 17q8 15 4 13c-2 0-14-22-12-23q0-5 8 10M859 638a1748 1748 0 0 0 13 39c1 1 16-5 16-6q0-6-6-5l-4 1-7-16q-5-14-8-15zM818 650l-8 2 4 21 4 19 6-1q13-1 10-6 1-4-5-3-5 2-5-2l-1-4q0-3 4-3 4-1 3-3l-1-4q0-2-4-1-5 0-5-4-1-4 3-4 3 0 3-4 2-6-8-3M716 655c-3 2-6 9-5 12l6 10q6 9 2 11-2 0-2-4 1-4-4-4-6-2-5 7 2 8 11 9 9 0 10-11 1-6-4-13-7-11-4-11l2 3q0 3 4 3 6 1 4-5l-2-6c-3-2-11-3-13-1M797 654v7q0 11-4-3-1-3-4-3l-4 1c-1 2 3 38 4 40l5 1c3-1 3-1 3-9l-1-7 3 7q2 10 6 7l4-1c1-1-3-32-4-38q-1-3-4-3zM740 659c-3 2-3 3-4 18 0 15 0 16 3 19 3 4 11 4 14 0 4-3 4-15 1-15h-4l-2 4q0 5-2 5-3 2-2-10l1-14q2-5 3 3-1 5 5 4 5 1 4-5c0-10-10-15-17-9M763 670l1 22v7l8-1 9-1v-4q-1-4-5-4-5 1-4-4-1-5 3-5t4-4-4-4q-5 1-4-4-1-5 4-4 4 1 4-4v-4h-16zM647 191c-3 7-3 7-1 12l1 6-4-2q-4-3-10 0l-6 4c2 2 12 4 16 2l4-1q0 3-7 21l-8 22h12l1 5c4 10 4 10 8 3l2-8 6 1q8 1 5-4l-15-40 5 1q5 2 11 0 10-4-2-6-5-3-9 0l-5 1 1-6v-11l-2-6zM600 261c-2 7-2 8 0 12l1 5-5-1c-5-2-6-2-11 0l-5 3 6 3q6 3 9 0 6-3 5 0l-16 42h13l2 7 4 7 2-7c2-6 2-6 9-6l6-1-15-40q-3-5 5-2h10l5-3-5-3c-6-2-7-2-11 0l-5 2 1-3q3-9 0-15l-2-6zM694 259q-4 8-1 14 4 6-4 3-4-3-10 0l-6 3 6 3q7 3 10 0 5-3 4 0l-15 42q-2 2 5 1 9-3 10 8l3 6 3-6q2-11 9-8l5-1-8-22-7-22 5 2q4 3 9 1 11-4 2-6-7-3-14 0-3 1-1-5 3-6 0-12l-2-5zM967 141q-2 5 4 7h4l-4 5-5 5 5-5q7-6 4-12c-1-3-7-3-8 0m5 3-1 1-1-1 1-1zM950 146q-2 5 2 9 3 0-1 5l2-2q9-7 4-11-3-3-7-1M982 151q-5 4 1 8h4c3-2 3-8 0-9q-2-2-5 1m5 4-2 1-1-1 1-2zM973 167q0 5 5 6l5-5q-2-4-8-5-3-1-2 4m6 1-2 1-1-1 1-1zM940 170l-5 5zq9-10-1-1M946 169l1 2 1-2-1-1zM966 177l-2 4q0 4 5 4 4 0 4-4 1-5-4-5zm3 4v2l-2-2 1-1zM871 246q-3 3 0 1l2-2q0-3-2 1M684 367c-12 2-22 14-22 27q-1 12 12 25 13 14 9 24-1 10-9 14-15 9-25-1c-8-8-4-23 6-23 7 0 11 6 6 9q-1 3-4 1-3-3-4 0c-3 8 10 12 17 5q5-6 2-14c-3-13-23-15-33-4s-5 31 9 38c19 9 41-3 46-25q3-15 18-18 13-3 21 6 5 3 4 12 1 8-3 11-8 8-16 4c-6-3-7-13-2-14q4 0 3 2 0 3 3 3c7 0 9-8 3-13-7-6-18-1-22 9-5 16 14 30 32 22q14-7 14-24c0-22-24-35-49-26l-8 3-7-6q-13-9-12-19c0-14 13-23 25-17q7 3 7 12-1 9-9 8-7-2-1-9 3-2 0-4-6-3-11 5c-4 7 4 18 13 18s18-10 18-19c0-15-15-26-31-22"/>
  <g filter="url(#c)">
    <line x1="748.3" x2="975.3" y1="369.3" y2="148.3" stroke="#000" stroke-width="2"/>
  </g>
  <g filter="url(#d)">
    <line x1="742.3" x2="953.3" y1="362.3" y2="157.3" stroke="#000" stroke-width="2"/>
  </g>
  <g filter="url(#e)">
    <line x1="746.3" x2="970.3" y1="365.3" y2="147.3" stroke="#000" stroke-width="2"/>
  </g>
  <path fill="#000" d="M711 41v1a287 287 0 0 0 88 0v-1a287 287 0 0 0-88 0"/>
  <defs>
    <filter id="a" width="227.4" height="222.4" x="752" y="162" color-interpolation-filters="sRGB" filterUnits="userSpaceOnUse">
      <feFlood flood-opacity="0" result="BackgroundImageFix"/>
      <feColorMatrix in="SourceAlpha" result="hardAlpha" values="0 0 0 0 0 0 0 0 0 0 0 0 0 0 0 0 0 0 127 0"/>
      <feOffset dy="4"/>
      <feGaussianBlur stdDeviation="2"/>
      <feComposite in2="hardAlpha" operator="out"/>
      <feColorMatrix values="0 0 0 0 0 0 0 0 0 0 0 0 0 0 0 0 0 0 0.25 0"/>
      <feBlend in2="BackgroundImageFix" result="effect1_dropShadow_1_2"/>
      <feBlend in="SourceGraphic" in2="effect1_dropShadow_1_2" result="shape"/>
    </filter>
    <filter id="b" width="234.4" height="228.4" x="748" y="153" color-interpolation-filters="sRGB" filterUnits="userSpaceOnUse">
      <feFlood flood-opacity="0" result="BackgroundImageFix"/>
      <feColorMatrix in="SourceAlpha" result="hardAlpha" values="0 0 0 0 0 0 0 0 0 0 0 0 0 0 0 0 0 0 127 0"/>
      <feOffset dy="4"/>
      <feGaussianBlur stdDeviation="2"/>
      <feComposite in2="hardAlpha" operator="out"/>
      <feColorMatrix values="0 0 0 0 0 0 0 0 0 0 0 0 0 0 0 0 0 0 0.25 0"/>
      <feBlend in2="BackgroundImageFix" result="effect1_dropShadow_1_2"/>
      <feBlend in="SourceGraphic" in2="effect1_dropShadow_1_2" result="shape"/>
    </filter>
    <filter id="c" width="236.4" height="230.4" x="744" y="148" color-interpolation-filters="sRGB" filterUnits="userSpaceOnUse">
      <feFlood flood-opacity="0" result="BackgroundImageFix"/>
      <feColorMatrix in="SourceAlpha" result="hardAlpha" values="0 0 0 0 0 0 0 0 0 0 0 0 0 0 0 0 0 0 127 0"/>
      <feOffset dy="4"/>
      <feGaussianBlur stdDeviation="2"/>
      <feComposite in2="hardAlpha" operator="out"/>
      <feColorMatrix values="0 0 0 0 0 0 0 0 0 0 0 0 0 0 0 0 0 0 0.25 0"/>
      <feBlend in2="BackgroundImageFix" result="effect1_dropShadow_1_2"/>
      <feBlend in="SourceGraphic" in2="effect1_dropShadow_1_2" result="shape"/>
    </filter>
    <filter id="d" width="220.4" height="214.4" x="738" y="157" color-interpolation-filters="sRGB" filterUnits="userSpaceOnUse">
      <feFlood flood-opacity="0" result="BackgroundImageFix"/>
      <feColorMatrix in="SourceAlpha" result="hardAlpha" values="0 0 0 0 0 0 0 0 0 0 0 0 0 0 0 0 0 0 127 0"/>
      <feOffset dy="4"/>
      <feGaussianBlur stdDeviation="2"/>
      <feComposite in2="hardAlpha" operator="out"/>
      <feColorMatrix values="0 0 0 0 0 0 0 0 0 0 0 0 0 0 0 0 0 0 0.25 0"/>
      <feBlend in2="BackgroundImageFix" result="effect1_dropShadow_1_2"/>
      <feBlend in="SourceGraphic" in2="effect1_dropShadow_1_2" result="shape"/>
    </filter>
    <filter id="e" width="233.4" height="227.4" x="742" y="147" color-interpolation-filters="sRGB" filterUnits="userSpaceOnUse">
      <feFlood flood-opacity="0" result="BackgroundImageFix"/>
      <feColorMatrix in="SourceAlpha" result="hardAlpha" values="0 0 0 0 0 0 0 0 0 0 0 0 0 0 0 0 0 0 127 0"/>
      <feOffset dy="4"/>
      <feGaussianBlur stdDeviation="2"/>
      <feComposite in2="hardAlpha" operator="out"/>
      <feColorMatrix values="0 0 0 0 0 0 0 0 0 0 0 0 0 0 0 0 0 0 0.25 0"/>
      <feBlend in2="BackgroundImageFix" result="effect1_dropShadow_1_2"/>
      <feBlend in="SourceGraphic" in2="effect1_dropShadow_1_2" result="shape"/>
    </filter>
  </defs>
</svg>
