<svg xmlns="http://www.w3.org/2000/svg" fill="none" viewBox="0 0 683 683">
  <g clip-path="url(#a)">
    <ellipse cx="581.5" cy="43.5" fill="#d9d9d9" rx="4.5" ry="2.5"/>
    <ellipse cx="601.5" cy="35.5" fill="#d9d9d9" rx="4.5" ry="2.5"/>
    <ellipse cx="637.5" cy="95.5" fill="#d9d9d9" rx="5.5" ry="4.5"/>
    <path fill="#d9d9d9" d="M631 113a5 5 0 0 1-10 0c0-3-3-8 5-5q5 0 5 5M654 77q-1 4-6 5-5-1-5-5c0-2-10-7 5-4q5 1 6 4M584 60q-1 8-14 9-14-1-15-9c-3-7 6-9 15-9q13 1 14 9"/>
    <path fill="#d9d9d9" d="M642 63c-23 27-18 64-51 45-22 0-36 10-35-12 1-39-5-35 55-60 51-26 57-4 31 27M237 654c-6 22-12 24-22 24q-17 1-17-20c0-15 2-39 18-30 25-8 21 11 21 26M51 445q0 7-7 13-6 5-16 5-9 0-16-5-6-5-7-12 0-8 6-13 6-6 16-6t16 4q7 6 8 13l-23 1z"/>
    <path fill="#d9d9d9" d="M51 445q0 7-7 13-6 5-16 5-9 0-16-5-6-5-7-12 0-8 6-13 6-6 16-6t16 4q7 6 8 13l-23 1z"/>
    <ellipse cx="342.5" cy="341.5" fill="#d9d9d9" rx="333.5" ry="335.5"/>
    <path fill="#000" d="M307 3Q181 17 98 104A337 337 0 0 0 9 413l3 15-5 7q-5 8-4 12l3 8q7 8 15 9c2 0 4 4 12 21a334 334 0 0 0 148 156l15 8v9l2 13c4 8 19 12 27 7l8-7q4-7 6-5a420 420 0 0 0 124 15l24-3a376 376 0 0 0 104-32 336 336 0 0 0 180-223c7-26 12-62 12-83a344 344 0 0 0-88-227q0-3 10 2l6 2 3-3q4-6 5-1c2 7 12 9 14 3q2-6-6-10-8-3-2-10l3-3 3 3q7 9 10 5 3-1 3-5t-4-6q-10-4-6-9c3-4 3-5 9 0l7 3q5-1 4-9-1-3-6-4-5 0-5-2l4-10 8-16c3-8 4-9 2-13q-4-8-15-7l-17 6q-18 7-16 2 0-2-4-1-12 2-10 7 1 4-3 4-3 1-4-2c-3-4-15 1-15 6q-1 5-10 6-15-2-9 16l2 10-7-5A355 355 0 0 0 391 5l-23-4c-13-2-39-1-61 2m30 39v27h185l9 7q10 6 14 10l4 3-29 28-29 28-76 1h-77v75h36l36 1-23 22-34 32-11 9h-24l-15 7-14 7-136 1-136-1 5-24q3-2 7 10c4 10 3 10 8-4l3-7 7 1 7 1-17-53q0-4 6-1c6 2 7 2 14 0l6-3c-3-3-16-7-18-6l-4-1 9-18c8-16 27-46 35-55l3-4-2 6-18 46 8 1 8-1 3 9 4 9 4-9 3-9h8l7 1-1-3-6-16-9-24-3-11 7 2 6 3 7-3 7-4-8-4-8-3-6 3-6 1 16-17c14-13 16-15 20-16l9-1c4 0 4 0 7 8q5 17 7 6l4-10 1-4 7 1 7 1-4-14-5-14 3-3a307 307 0 0 1 95-41q3 0 4 4 5 11-4 6l-6-3-7 3q-8 2-8 4l8 3c7 2 8 2 12 0l6-2-10 28-11 28q0 2 13-1 2-1 6 8 5 16 6 5c5-13 5-13 13-12l7 1-4-15c-12-31-16-42-15-43l6 2 6 3 8-3q11-4 5-5l-8-3c-5-2-6-2-11 1l-6 2c-1-1 3-13 4-14 1-2 42-7 56-7h7zm315-15q5 5 0 16l-40 67-3 3-6-2q-13-5-24-1h-5q-1-3 2-5c7-8 38-33 40-33v2q-3 6 3 9c6 2 11-6 5-10s-10-3-23 8l-30 25c-2-2 0-5 27-32 18-17 22-22 22-25q-1-7-7-9l-4 3q-5 3 0 8 3 3 7 2 4-2-22 24l-27 24q-5 2 8-12l10-11q-2 0-11 10-11 12-12 9c-2-1 1-5 17-20q17-19 18-22 0-5-6-6c-6 0-8 8-3 12 3 1 2 2-13 18l-17 16-2-3q-2-3 1-7c2-4 2-8 0-25q-2-6 2-5l11-2 76-28zm-46 8c-2 1-7 3-7 1l6-3q2 0 1 2m-24 8q-2 2-4 1 0-2 5-3 2 0-1 2m33 4-2 1-2-1 2-2zm-22 8-1 2q-3-1-2-3 3-2 3 1m55 20q4 0 4 2 0 6-7 0l-3-3zm-26 4h-2l-1-3h3zm18 14 1 3q-2 5-6 1-1-6 2-4zm-85 6-8 8q-9 10-10 7-2-2 6-10l10-7zm6 5 4 5-7 7q-9 9-10 7-6 0 5-12zl-8 8q-8 9-11 7-4 0 6-9l8-9zm65 5q7 3 3 7-2 4-6-4l-2-5zm-55 5-8 9-8 8-2-3c-3-3-3-3 5-11q8-8 10-6 3 1 3 3m-41 10q-8 9-10 6-2-1 6-9t10-6-6 9m60 6 12 15h-54l14-15 15-14q3 1 13 14m-49-10c1 2-12 16-15 16l-2-2 6-9q9-9 11-5m5 5q2 2-6 9c-7 7-7 7-10 5-2-2-2-2 5-9q10-11 11-5m6 5q4 1-6 10c-7 7-7 7-10 5l-3-3 7-7 8-7zm-33 2q1 2-6 8-7 7-9 5-2-1 5-8 10-9 10-5m5 4q2 2-6 9-7 9-9 5-3-1 5-9 9-9 10-5m5 5q3 2-4 8-10 10-11 5-1-1 5-9l8-6zm6 5c2 3 2 3-5 10q-7 9-9 5l-2-3 13-14zm-31 1q0 3-7 8-7 8-8 5-2-1 5-8 9-8 10-5m-1 12q-7 9-9 5c-2-2 11-15 14-13q2 1-5 8m10-2q3 2-4 8-8 9-10 4-2-1 5-8l7-6zm-24 5q0 2-6 7-6 7-8 4-3 0 4-7 5-5 4-7l2 1zm30 0c2 3 2 3-4 9-7 7-7 7-10 4l-2-2 6-7 7-6zm-31 12q-6 7-8 4-3-2 4-8 7-7 9-5 4 2-5 9m10-3q3 1-5 8-6 8-8 4-3-2 4-8c7-6 7-6 9-4m-28 11q-6 8-8 5-4-2 3-8 6-7 9-4 4 1-4 7m34-5q4 2-3 9l-6 7-3-3-3-3 6-6 6-6zm-25 3q1 2-4 7c-6 6-6 6-8 4q-4 0 3-7 8-8 9-4m5 5q2 2-3 7-8 8-10 4-2-1 4-8 8-8 9-3m-28 10q-5 7-7 4-4-2 3-8 6-6 8-4 3 2-4 8m34-5q5 3-3 10l-5 5-3-3-4-3 6-6 6-5zm-28 10q-6 7-8 4c-2-2-2-2 4-8q6-7 7-3 4 1-3 7m9-2q3 2-4 8-6 7-8 3-4-2 3-8c6-6 6-6 9-3m-22 3q0 2-5 6-6 7-7 4-3-2 2-7 5-4 4-6l2 1zm28 3 3 3-5 6-6 5-3-3-3-4 5-5 5-5zm-24 1q0 2-4 6c-5 5-5 6-8 4q-2-1 3-6 7-7 9-4m1 12q-5 6-7 3-3-1 3-7t7-3q4 2-3 7m-16-2 4 4-5 4q-5 6-6 3-3-2 2-7 7-7-3 1-6 3-5-2v-4h1c1 1 5-2 4-3-2-3 5 0 8 4m24 10-5 5-3-4-4-3 5-5 6-5 3 4 3 3zm-15-3q2 2-4 6c-5 5-5 5-8 3q-4-2 3-7 6-7 9-2m-23 1q3 1-3 6-5 5-6 2-3-1 2-6 4-5 7-2m222 1a398 398 0 0 1 19 75 4010 4010 0 0 1-269 0l38-40 38-38h86c82 0 87 0 88 3m-194 4q6 3-2 9l-4 4-4-3-3-4 4-4q6-7 9-2m-23-1q5 2-3 7-5 4-7 2-3-1 2-6c4-4 4-4 8-3m-18 12q-5 3-7 2c-1-1-2-7 0-6l4-2q4-3 5 0 3 2-2 6m24-6q2 2-3 6-5 6-8 2-2-1 3-6c5-5 5-5 8-2m-16 5q2 2-4 6-4 6-6 2-2-2 2-6c5-5 5-5 8-2m22 1 4 4-4 4-5 5-4-3-4-4 4-5 5-4zm-38 4q1 2-2 5-4 5-6 2-3-2 1-5 5-6 7-2m21 0q2 2-3 6-5 5-6 2-3-1 2-6t7-2m-18 10q-4 5-6 2-3-1 2-6 4-5 6-2 3 2-2 6m25-3q4 3-2 9-3 5-7-1-6-3 0-8c5-4 5-4 9 0m-38 2q3 1-1 5l-5 3q-4-1 0-7 5-4 6-1m18 7q-4 6-6 1-3-1 2-6 5-4 6-1 3 1-2 6m-14 3q-5 6-7 1-1-2 3-5 4-4 6-1 2 1-2 5m24 5q-4 7-10 0l-3-4 4-4 4-3 5 4 4 4zm-37-6q2 2-2 5-3 6-6 2-3-3 1-6 5-6 7-1m20 1q2 2-2 6-3 4-6 1-3-1 1-6 5-6 7-1m-15 4 2 2-4 3q-2 3-5 1t1-5q4-6 6-1m22 3 4 4-3 4-4 4-4-5-5-4 4-3 4-4zm-38 5q-3 4-5 1-3-1 1-5t6-1q2 1-2 5m22-3q2 2-2 6-3 4-5 1-4-2 0-6t7-1m-16 8-4 2q-5-1 0-6 3-4 5-1 3 2-1 5m-12-2c2 2-4 8-6 7l-3-4v-2c1 1 5-2 4-4l2 1zm35 2 4 4-3 3-4 3-4-4-4-4 3-3c3-4 3-4 8 1m-17 5q-5 4-7 1-1-2 2-5 4-3 5-1 3 2 0 5m-13-2q2 2-1 5-3 4-5 1-3-2 0-5 4-6 6-1m-13 3q2 2-1 5-4 3-5 1c-2-2-3-7-1-6l2-1q2-3 5 1m35 2 4 4-3 3-4 3-4-4q-6-4-2-7 3-6 9 1m-17 0q3 3-1 5-3 4-5 1-3-2 0-5 4-4 6-1m-42 2c3 1 2 2-9 12l-13 14c0 2 32 32 34 32l18-17q18-17 13-11-9 16-5 27 2 3-2 13L248 632c-15 33-20 41-24 43-8 5-19 2-23-6-3-5-3-5 2-118 2-48 2-64 1-69q-4-14-17-20l-7-4-30 1-133 1q-15-7-10-21c2-5 2-6 34-20l131-61 93-43 40-19c17-8 22-9 30-7m29 1q2 1-2 5-3 3-5 0-2-1 1-4 4-6 6-1m-12 4-3 3q-3 2-4 0-3-1 0-4 4-4 5-2zm33 1 4 4-3 3-3 3-4-4c-5-5-5-5-2-8s3-3 8 2m-16 0q3 3-1 5-3 4-5 1-3-2 0-5 4-4 6-1m-14 7q-2 3-5 1t1-5q3-4 5-1 3 1-1 5m-11-3c2 3-3 7-6 5q-2-1-1-4 4-4 7-1m35 10c-3 4-3 4-8-1l-5-4 3-3 4-4 4 5q7 6 2 7m-8 8-2 3-5-5-5-5 3-2 3-3-4 2q-4 3-6 0-3-2 1-4l3-3 8 7c7 8 7 8 4 10m-34-11v3q-3 3-4 2c-2-1-4-6-3-7q2-1 7 2m15 1q6 4 2 7-2 3-5 0-3-2 0-5 3-4-1 0-3 3-5 0-3-1 0-4c3-3 3-3 9 2m-10 8q-2 2-4-1-3-1-1-4t5 0q3 2 0 5m-11-4v4q-2 3-4 0-3-2-2-4 3-3 6 0m32 6q6 4 2 7l-3 3-4-5q-7-5-3-8 2-5 8 3m-15-1q1 7-5 4-3-2 0-5t5 1m-19 4 13 13q8 6 6 8-1 2-12-10l-12-11q-4-1-3-4 0-3 8 4m7-3v3c-2 2-6-2-5-4q2-3 5 1m7 6q-1 5-5 2-3-3-1-4 2-3 4-1zm13 0q6 6 2 7-1 4-7-2-6-5-3-7 2-5 8 2m-3 13q-2 3-7-3-6-5-3-7 1-4 7 3 5 5 3 7m-242 45-19 9-67 31-7-36-2-9h106zm554-1c0 10-6 38-12 58l-4 14H335v-3l30-68 2-5h298zM198 563l-2 39v5h-45l-6-5a356 356 0 0 1-70-71c0-1 12-2 62-2h62zm409-32-9 12q-25 32-60 59l-6 5H399l-134-1 17-39 17-38h155c123 0 154 1 153 2"/>
    <path fill="#000" d="m205 107-4 9 3 6 3 7-6-2-7-3-6 3q-15 4-1 7c7 3 8 3 13 1l6-1-20 53q0 1 7 1l9-1 3 9 3 9q2-1 4-9l4-9 8 1 8-1-21-53 7 1c6 1 7 1 14-2l7-3-7-3c-10-4-10-4-16 0l-6 2 2-7 3-8-3-8-3-7zM147 195l-4 9 3 6 3 7-7-2c-7-3-7-3-15 0q-7 3-6 4l8 3c6 2 7 2 12 0l6-2-20 54q-1 3 7 1c9-1 8-2 13 14l3 6 3-10 4-10 7 1h8l-3-10-18-47 6 2c7 3 10 3 18 0l6-3-9-3c-8-3-8-3-13-1q-6 2-7 1l2-6c2-6 2-7-1-15l-3-9zM264 193l-3 8 3 8 2 7-7-3-7-2-7 3-6 3c0 1 12 6 15 6l6-2q4-3 5-2l-10 28-11 28 8 1 9-1 2 9 4 9 4-9 3-9h15l-10-28-9-28 5 2 7 2c3 0 15-4 15-6l-8-3c-8-3-8-3-14-1l-6 2 2-7c2-6 2-7 0-15l-4-8zM626 57c-4 4-1 10 5 10 5 0 8-6 4-10l-4-2zm6 4-1 1q-2 1-2-1t2-2zM566 59q-3 4-1 6 5 5 11 1h1l-11 13-9 12 13-14q12-12 9-13l-2-2q-1-5-6-6-3 0-5 3m6 4-1 1-2-1 2-2zM606 90l-2 4 2 4 4 2 4-2 2-4-2-4-4-2zm6 3-2 2-2-2 2-1zM247 335q-25 9-25 34c0 13 3 18 15 31q13 13 12 25-1 21-22 27c-12 3-24-3-27-14-3-12 7-23 18-19 4 1 7 7 5 10-2 2-8 2-9 0q-3-2-5 4c0 4 7 8 11 8 18 0 22-25 5-33-6-3-17-3-24 0q-15 8-14 27c2 29 36 40 61 22q9-8 13-25 5-15 14-20c15-9 35-5 40 9 6 14-1 28-15 29-6 1-7 1-11-3q-7-8-1-14 5-5 6 1 0 4 4 4c9 1 11-9 4-16-8-7-22-4-26 6-9 19 7 39 29 35 27-4 35-41 13-60-6-5-19-10-27-10-6 0-17 3-25 6l-6 3-9-8c-13-10-15-13-16-21q-1-23 21-26 20-1 20 16-1 10-9 12c-7 0-9-7-4-12q5-3 0-5c-6-5-15 2-15 11q0 6 4 10c16 19 45-3 35-27q-4-9-14-15c-7-3-20-4-26-2"/>
  </g>
  <defs>
    <clipPath id="a">
      <path fill="#fff" d="M0 0h683v683H0z"/>
    </clipPath>
  </defs>
</svg>
